PathFileType	4	(X/Y/Z)	C:\Users\Biomechanik\Documents\powerlifting_model\powerlifing_model\simulations\Athlete_03\25_03_31\Walking_01\c3dfile.trc
DataRate	CameraRate	NumFrames	NumMarkers	Units	OrigDataRate	OrigDataStartFrame	OrigNumFrames
200.0	200.0	4	53	mm	200.0	695	239	
Frame#	Time	GLAB			RFHD			LFHD			C7			T6			SPINMOL			SPINM2			SPINM3			T12			BELTOL			BELT2			BELT3			SACROL			SACR2			SACR3			LTHOL			LTH2			LTH3			LSHAOL			LSHA2			LSHA3			LHEE			LTOE			LM5			RTHOL			RTH2			RTH3			RSHAOL			RSHA2			RSHA3			RHEE			RTOE			RM5			STRN			XIPH			LACR			LUAOL			LUA2			LUA3			LLAOL			LLA2			LLA3			LWRR			LWRU			RACR			RUAOL			RUA2			RUA3			RLAOL			RLA2			RLA3			RWRR			RWRU			
		X1	Y1	Z1	X2	Y2	Z2	X3	Y3	Z3	X4	Y4	Z4	X5	Y5	Z5	X6	Y6	Z6	X7	Y7	Z7	X8	Y8	Z8	X9	Y9	Z9	X10	Y10	Z10	X11	Y11	Z11	X12	Y12	Z12	X13	Y13	Z13	X14	Y14	Z14	X15	Y15	Z15	X16	Y16	Z16	X17	Y17	Z17	X18	Y18	Z18	X19	Y19	Z19	X20	Y20	Z20	X21	Y21	Z21	X22	Y22	Z22	X23	Y23	Z23	X24	Y24	Z24	X25	Y25	Z25	X26	Y26	Z26	X27	Y27	Z27	X28	Y28	Z28	X29	Y29	Z29	X30	Y30	Z30	X31	Y31	Z31	X32	Y32	Z32	X33	Y33	Z33	X34	Y34	Z34	X35	Y35	Z35	X36	Y36	Z36	X37	Y37	Z37	X38	Y38	Z38	X39	Y39	Z39	X40	Y40	Z40	X41	Y41	Z41	X42	Y42	Z42	X43	Y43	Z43	X44	Y44	Z44	X45	Y45	Z45	X46	Y46	Z46	X47	Y47	Z47	X48	Y48	Z48	X49	Y49	Z49	X50	Y50	Z50	X51	Y51	Z51	X52	Y52	Z52	X53	Y53	Z53	
695	3.47	207.00179	1579.5957	500.48495	271.64865	1604.4897	551.26105	134.36673	1601.6615	545.71753	197.77524	1419.1576	728.47516	195.9574	1252.0203	790.63257	175.25345	1211.4103	800.25787	225.04478	1204.7146	805.05511	192.05728	1147.5363	796.00714	196.36035	1081.5159	770.96429	185.58864	1048.1024	809.9729	235.78296	1044.4424	806.42615	205.56802	985.36432	814.42383	190.87349	944.99585	800.396	241.02724	938.40601	791.58911	212.56494	884.34985	817.32574	20.328506	680.4657	777.27173	56.657555	641.42188	836.1413	37.200012	623.8996	794.02399	44.817638	340.9437	890.85754	56.277596	298.00461	956.79089	55.184128	282.63528	909.05743	150.78952	122.4031	1040.1218	149.08325	39.786419	836.66028	50.041626	32.390427	883.48645	384.99625	646.9787	636.70477	404.70193	613.9118	566.49927	377.47021	595.57611	604.62823	387.32092	320.60797	505.66507	397.2178	275.07846	443.18701	376.69363	262.64398	486.6142	291.82007	52.375587	392.24734	313.55978	146.6292	205.68848	407.73627	94.375717	237.13077	202.18871	1313.2841	558.74268	198.72346	1170.2186	544.71533	27.211117	1382.1404	649.354	-78.011124	1235.8997	628.35522	-97.586693	1173.2159	625.94366	-75.240395	1188.7987	584.27649	-120.19942	1002.6071	503.28989	-100.83138	926.21167	496.93411	-110.71834	959.9151	460.35428	-94.238831	893.68652	381.71964	-27.389225	930.19562	360.91687	370.04346	1369.4644	649.74304	467.50269	1226.5664	696.27594	481.33627	1163.3334	684.7428	484.51273	1174.9529	734.08649	529.5141	958.23566	740.32843	569.91522	902.10651	702.59473	538.80127	896.14746	740.59467	565.11401	811.2832	719.59998	504.05579	784.15601	673.11145
696	3.475	207.80148	1579.1102	496.74625	272.47739	1603.9237	547.49194	135.19281	1601.2134	542.00146	198.48941	1418.6072	724.62634	196.5367	1251.4958	786.78778	175.80278	1210.8977	796.41663	225.58757	1204.1664	801.21802	192.56505	1147.0131	792.16779	196.81494	1080.9852	767.10168	186.19136	1047.6367	806.11548	236.37814	1043.9397	802.52887	206.13095	984.89252	810.60925	191.36681	944.57147	796.59784	241.49699	937.91345	787.72406	213.02382	883.93372	813.60803	20.465725	680.37531	774.13776	56.823109	641.50592	833.11707	37.304127	623.8847	791.08093	44.724842	341.39023	889.02966	56.188732	298.83673	955.17712	55.105488	283.20261	907.51898	150.5807	123.71069	1039.436	149.06979	39.686802	836.59186	49.983967	32.436161	883.29041	385.48157	646.59949	632.02271	404.74466	613.84955	561.58704	377.85269	595.28516	599.85199	387.09674	320.22324	501.59497	397.05975	274.32419	439.25681	376.36398	262.19412	482.70676	291.56122	51.807465	388.75824	313.16553	145.59598	202.02235	407.37433	93.447487	233.495	202.80615	1312.7076	554.89648	199.19748	1169.6476	540.85449	27.869051	1381.6888	645.5498	-77.458435	1235.4489	624.74579	-97.021873	1172.7219	622.24976	-74.773964	1188.3574	580.64673	-119.81828	1002.241	499.59738	-100.5038	925.82642	493.12817	-110.36811	959.5835	456.63998	-93.927986	893.37036	377.93863	-27.088596	929.90967	357.13382	370.7077	1368.7263	645.94879	468.01068	1225.7544	692.52136	481.82489	1162.5143	680.9679	485.00067	1174.1063	730.3681	529.85962	957.35071	736.52277	570.22052	901.20013	698.77753	539.08795	895.24689	736.7663	565.3252	810.37177	715.76648	504.26157	783.32751	669.21661
697	3.48	208.72566	1578.5728	492.4451	273.4346	1603.2941	543.1618	136.14619	1600.7155	537.72662	199.31848	1417.99	720.19464	197.20786	1250.9087	782.35773	176.43846	1210.3242	791.98853	226.21594	1203.5521	796.79742	193.15269	1146.4271	787.74329	197.34218	1080.3894	762.65033	186.87927	1047.1052	801.66962	237.05818	1043.368	798.04022	206.77571	984.354	806.20892	191.9279	944.08521	792.21289	242.03319	937.35181	783.26794	213.54303	883.45264	809.30267	20.623075	680.27832	770.50146	57.021893	641.59723	829.59314	37.434139	623.86298	787.64624	44.619003	341.91354	886.87531	56.088226	299.81232	953.26941	55.017666	283.86948	905.70001	150.34435	125.2535	1038.5941	149.0578	39.570953	836.51807	49.915371	32.492538	883.05792	386.04398	646.19818	626.63818	404.8158	613.8006	555.95032	378.30286	594.98279	594.36511	386.85519	319.79227	496.95248	396.87534	273.4675	434.79669	376.00244	261.68942	478.27765	291.2489	51.160622	384.94162	312.67923	144.25868	197.95061	406.9335	92.278275	229.49095	203.52615	1312.0632	550.46448	199.75531	1169.0095	536.40338	28.635719	1381.1831	641.15894	-76.811821	1234.9453	620.58411	-96.361633	1172.1707	617.99915	-74.231819	1187.8612	576.46674	-119.37988	1001.8182	495.37155	-100.12767	925.37939	488.78909	-109.96631	959.19031	452.39545	-93.578011	892.98517	373.62991	-26.74518	929.54749	352.81683	371.48157	1367.8953	641.57642	468.60419	1224.8319	688.18884	482.39404	1161.5851	676.61206	485.56699	1173.144	726.07178	530.25397	956.34088	732.12067	570.56732	900.16467	694.35889	539.41382	894.22009	732.33478	565.56384	809.33307	711.32776	504.49051	782.38965	664.7074
698	3.485	209.7684	1577.9935	487.61417	274.51352	1602.6128	538.30469	137.22031	1600.1768	532.92566	200.25841	1417.3157	715.21265	197.96738	1250.2684	777.37396	177.15691	1209.6996	787.00446	226.92642	1202.882	791.82495	193.81694	1145.7882	782.76514	197.93944	1079.7377	757.6416	187.6452	1046.5126	796.66589	237.8161	1042.7338	792.99249	207.49623	983.75397	801.25177	192.55058	943.54138	787.2699	242.63033	936.72693	778.25165	214.11615	882.90979	804.43372	20.80055	680.17657	766.3797	57.255932	641.69281	825.58185	37.592609	623.83337	783.73059	44.501411	342.51282	884.39447	55.977795	300.92944	951.06592	54.922241	284.63501	903.59888	150.08383	127.03165	1037.5851	149.04855	39.439129	836.44128	49.835976	32.56004	882.7887	386.67917	645.78827	620.59674	404.92023	613.77136	549.63922	378.81979	594.6803	588.21448	386.60422	319.32132	491.78528	396.66443	272.51755	429.85654	375.61792	261.13782	473.37979	290.88281	50.444218	380.88272	312.09518	142.5871	193.54675	406.41022	90.849564	225.19946	204.34615	1311.3608	545.47833	200.39644	1168.316	531.39294	29.508307	1380.6321	636.21082	-76.0728	1234.3981	615.89886	-95.60849	1171.5721	613.22375	-73.615593	1187.3174	571.76709	-118.8868	1001.3416	490.65149	-99.706009	924.87286	483.96198	-109.51627	958.73499	447.66171	-93.193657	892.52698	368.83923	-26.362404	929.10162	348.00967	372.36215	1366.9829	636.65698	469.28131	1223.8102	683.30762	483.04163	1160.5573	671.70471	486.2088	1172.0769	721.22418	530.69336	955.2168	727.14844	570.9519	899.01129	689.36426	539.77496	893.07812	727.32599	565.82697	808.17865	706.30859	504.73834	781.35443	659.60962
